<svg xmlns="http://www.w3.org/2000/svg" viewBox="0 0 500 200">
  <defs>
    <style>
      .text { fill: #4a90e2; font-family: 'Segoe UI', Tahoma, Geneva, Verdana, sans-serif; font-weight: bold; }
      .hexagon { fill: #4a90e2; stroke: black; stroke-width: 2; }
      .doc-lines { stroke: #4a90e2; stroke-width: 2; }
    </style>
  </defs>

  <!-- SDox Text -->
  <text stroke="black" x="20" y="120" class="text" font-size="100">SDoX</text>

  <!-- First Hexagon (with slightly smaller, wide document icon) -->
  <path class="hexagon" d="M340 80 L370 100 L370 140 L340 160 L310 140 L310 100 Z" />
  <path fill="white" d="M322 97 L358 97 L358 143 L322 143 Z" />
  <path fill="white" d="M358 97 L358 107 L348 97 Z" />
  <line x1="327" y1="112" x2="353" y2="112" class="doc-lines" />
  <line x1="327" y1="122" x2="353" y2="122" class="doc-lines" />
  <line x1="327" y1="132" x2="353" y2="132" class="doc-lines" />

  <!-- Second Hexagon (with slightly smaller, wide document icon) -->
  <path class="hexagon" d="M400 80 L430 100 L430 140 L400 160 L370 140 L370 100 Z" />
  <path fill="white" d="M382 97 L418 97 L418 143 L382 143 Z" />
  <path fill="white" d="M418 97 L418 107 L408 97 Z" />
  <line x1="387" y1="112" x2="413" y2="112" class="doc-lines" />
  <line x1="387" y1="122" x2="413" y2="122" class="doc-lines" />
  <line x1="387" y1="132" x2="413" y2="132" class="doc-lines" />

  <!-- Third Hexagon (Stacked on top, with slightly smaller, wide document icon) -->
  <path class="hexagon" d="M370 20 L400 40 L400 80 L370 100 L340 80 L340 40 Z" />
  <path fill="white" d="M352 37 L388 37 L388 83 L352 83 Z" />
  <path fill="white" d="M388 37 L388 47 L378 37 Z" />
  <line x1="357" y1="52" x2="383" y2="52" class="doc-lines" />
  <line x1="357" y1="62" x2="383" y2="62" class="doc-lines" />
  <line x1="357" y1="72" x2="383" y2="72" class="doc-lines" />
</svg>